/* XPM */
static char * substance_xpm[] = {
"20 17 2 1",
" 	c None",
".	c #000000",
"                    ",
"   ............     ",
"  ..............    ",
" ....        ....   ",
"...            ...  ",
"...             ... ",
"..              ... ",
"..               .. ",
"..              ... ",
"..              ... ",
"..              ..  ",
"..             ...  ",
"..     ..........   ",
"... ............    ",
"..............      ",
" .....              ",
"  ...               "};
